# xmcd CD database file
#
# Track frame offsets:
#	215
#	12720
#	27745
#	39947
#	48707
#	66275
#	85937
#	104770
#	114067
#	120007
#	141442
#	147867
#	180915
#	195580
#	211840
#	231275
#	237565
#	245525
#	255652
#	262600
#	274050
#
# Disc length: 3759 seconds
#
# Revision: 0
# Processed by: cddbd v1.5.1PL0 Copyright (c) Steve Scherf et al.
# Submitted via: CDex 1.60beta1
#
DISCID=2a0ead15
DTITLE=Andrea Marcovicci - Always, Irving Berlin
DYEAR=1994
DGENRE=Jazz
TTITLE0=They Say It's Wonderful
TTITLE1=Steppin' Out With My Baby-Top Hat, White Tie And Tails
TTITLE2=Everybody Step
TTITLE3=When I Lost You
TTITLE4=Marie-Reaching For The Moon
TTITLE5=Let's Have Another Cup Of Coffee-Manhattan Madness
TTITLE6=Slumming On Park Avenue-Puttin' On The Ritz
TTITLE7=I Threw A Kiss In The Ocean
TTITLE8=You'd Be Surprised
TTITLE9=I've Got My Love To Keep Me Warm-How Deep Is The Ocean
TTITLE10=Maybe It's Because I Love You Too Much
TTITLE11=Say It Isn't So-What'll I Do?-Remember-Suppertime
TTITLE12=Let Yourself Go-No Strings
TTITLE13=Change Partners-You're Easy To Dance With
TTITLE14=Let's Face The Music And Dance-It Only Happens When I Dance With You-C Heek
TTITLE15=Russian Lullaby
TTITLE16=Blue Skies
TTITLE17=Always
TTITLE18=The Song Is Ended
TTITLE19=Lazy
TTITLE20=You Keep Coming Back Like A Song
EXTD=YEAR: 1994
EXTT0=
EXTT1=
EXTT2=
EXTT3=
EXTT4=
EXTT5=
EXTT6=
EXTT7=
EXTT8=
EXTT9=
EXTT10=
EXTT11=
EXTT12=
EXTT13=
EXTT14=
EXTT15=
EXTT16=
EXTT17=
EXTT18=
EXTT19=
EXTT20=
PLAYORDER=
